<mxfile host="Electron" modified="2024-05-05T09:22:29.652Z" agent="Mozilla/5.0 (Macintosh; Intel Mac OS X 10_15_7) AppleWebKit/537.36 (KHTML, like Gecko) draw.io/24.2.5 Chrome/120.0.6099.109 Electron/28.1.0 Safari/537.36" etag="ciAoVe5-7cb2lYASEmM7" version="24.2.5" type="device">
  <diagram id="C5RBs43oDa-KdzZeNtuy" name="Page-1">
    <mxGraphModel dx="2084" dy="605" grid="1" gridSize="10" guides="1" tooltips="1" connect="1" arrows="1" fold="1" page="1" pageScale="1" pageWidth="827" pageHeight="1169" math="0" shadow="0">
      <root>
        <mxCell id="WIyWlLk6GJQsqaUBKTNV-0" />
        <mxCell id="WIyWlLk6GJQsqaUBKTNV-1" parent="WIyWlLk6GJQsqaUBKTNV-0" />
        <mxCell id="k9FPYHcv1VQ5JnB0tBHk-0" value="CarRentalSystem" style="rounded=0;whiteSpace=wrap;html=1;" parent="WIyWlLk6GJQsqaUBKTNV-1" vertex="1">
          <mxGeometry x="350" y="350" width="120" height="60" as="geometry" />
        </mxCell>
        <mxCell id="k9FPYHcv1VQ5JnB0tBHk-1" value="CarRentalBranch" style="rounded=0;whiteSpace=wrap;html=1;" parent="WIyWlLk6GJQsqaUBKTNV-1" vertex="1">
          <mxGeometry x="350" y="459" width="120" height="60" as="geometry" />
        </mxCell>
        <mxCell id="k9FPYHcv1VQ5JnB0tBHk-2" value="" style="endArrow=diamondThin;endFill=0;endSize=24;html=1;rounded=0;entryX=0.5;entryY=1;entryDx=0;entryDy=0;exitX=0.5;exitY=0;exitDx=0;exitDy=0;" parent="WIyWlLk6GJQsqaUBKTNV-1" source="k9FPYHcv1VQ5JnB0tBHk-1" target="k9FPYHcv1VQ5JnB0tBHk-0" edge="1">
          <mxGeometry width="160" relative="1" as="geometry">
            <mxPoint x="330" y="459" as="sourcePoint" />
            <mxPoint x="490" y="459" as="targetPoint" />
          </mxGeometry>
        </mxCell>
        <mxCell id="k9FPYHcv1VQ5JnB0tBHk-3" value="ParkingStall" style="rounded=0;whiteSpace=wrap;html=1;" parent="WIyWlLk6GJQsqaUBKTNV-1" vertex="1">
          <mxGeometry x="350" y="570" width="120" height="60" as="geometry" />
        </mxCell>
        <mxCell id="k9FPYHcv1VQ5JnB0tBHk-4" value="" style="endArrow=diamondThin;endFill=1;endSize=24;html=1;rounded=0;entryX=0.5;entryY=1;entryDx=0;entryDy=0;exitX=0.5;exitY=0;exitDx=0;exitDy=0;" parent="WIyWlLk6GJQsqaUBKTNV-1" source="k9FPYHcv1VQ5JnB0tBHk-3" target="k9FPYHcv1VQ5JnB0tBHk-1" edge="1">
          <mxGeometry width="160" relative="1" as="geometry">
            <mxPoint x="330" y="510" as="sourcePoint" />
            <mxPoint x="490" y="510" as="targetPoint" />
          </mxGeometry>
        </mxCell>
        <mxCell id="k9FPYHcv1VQ5JnB0tBHk-5" value="Vehicle" style="rounded=0;whiteSpace=wrap;html=1;" parent="WIyWlLk6GJQsqaUBKTNV-1" vertex="1">
          <mxGeometry x="350" y="690" width="120" height="60" as="geometry" />
        </mxCell>
        <mxCell id="k9FPYHcv1VQ5JnB0tBHk-6" value="" style="endArrow=diamondThin;endFill=0;endSize=24;html=1;rounded=0;entryX=0.5;entryY=1;entryDx=0;entryDy=0;exitX=0.5;exitY=0;exitDx=0;exitDy=0;" parent="WIyWlLk6GJQsqaUBKTNV-1" source="k9FPYHcv1VQ5JnB0tBHk-5" target="k9FPYHcv1VQ5JnB0tBHk-3" edge="1">
          <mxGeometry width="160" relative="1" as="geometry">
            <mxPoint x="330" y="690" as="sourcePoint" />
            <mxPoint x="490" y="690" as="targetPoint" />
          </mxGeometry>
        </mxCell>
        <mxCell id="k9FPYHcv1VQ5JnB0tBHk-7" value="Person" style="rounded=0;whiteSpace=wrap;html=1;" parent="WIyWlLk6GJQsqaUBKTNV-1" vertex="1">
          <mxGeometry x="50" y="490" width="120" height="60" as="geometry" />
        </mxCell>
        <mxCell id="k9FPYHcv1VQ5JnB0tBHk-8" value="Driver" style="rounded=0;whiteSpace=wrap;html=1;" parent="WIyWlLk6GJQsqaUBKTNV-1" vertex="1">
          <mxGeometry x="150" y="600" width="120" height="60" as="geometry" />
        </mxCell>
        <mxCell id="k9FPYHcv1VQ5JnB0tBHk-9" value="&amp;lt;&amp;lt;abstract&amp;gt;&amp;gt;&lt;br&gt;Account" style="rounded=0;whiteSpace=wrap;html=1;" parent="WIyWlLk6GJQsqaUBKTNV-1" vertex="1">
          <mxGeometry x="-60" y="600" width="120" height="60" as="geometry" />
        </mxCell>
        <mxCell id="k9FPYHcv1VQ5JnB0tBHk-10" value="Customer" style="rounded=0;whiteSpace=wrap;html=1;" parent="WIyWlLk6GJQsqaUBKTNV-1" vertex="1">
          <mxGeometry x="-160" y="744" width="120" height="60" as="geometry" />
        </mxCell>
        <mxCell id="k9FPYHcv1VQ5JnB0tBHk-11" value="Receptionist" style="rounded=0;whiteSpace=wrap;html=1;" parent="WIyWlLk6GJQsqaUBKTNV-1" vertex="1">
          <mxGeometry x="30" y="745" width="120" height="60" as="geometry" />
        </mxCell>
        <mxCell id="k9FPYHcv1VQ5JnB0tBHk-12" value="Extends" style="endArrow=block;endSize=16;endFill=0;html=1;rounded=0;exitX=0.5;exitY=0;exitDx=0;exitDy=0;entryX=0.5;entryY=1;entryDx=0;entryDy=0;" parent="WIyWlLk6GJQsqaUBKTNV-1" source="k9FPYHcv1VQ5JnB0tBHk-10" target="k9FPYHcv1VQ5JnB0tBHk-9" edge="1">
          <mxGeometry width="160" relative="1" as="geometry">
            <mxPoint x="230" y="690" as="sourcePoint" />
            <mxPoint x="390" y="690" as="targetPoint" />
          </mxGeometry>
        </mxCell>
        <mxCell id="k9FPYHcv1VQ5JnB0tBHk-13" value="Extends" style="endArrow=block;endSize=16;endFill=0;html=1;rounded=0;exitX=0.5;exitY=0;exitDx=0;exitDy=0;entryX=0.5;entryY=1;entryDx=0;entryDy=0;" parent="WIyWlLk6GJQsqaUBKTNV-1" source="k9FPYHcv1VQ5JnB0tBHk-11" target="k9FPYHcv1VQ5JnB0tBHk-9" edge="1">
          <mxGeometry width="160" relative="1" as="geometry">
            <mxPoint x="-90" y="760" as="sourcePoint" />
            <mxPoint x="10" y="670" as="targetPoint" />
          </mxGeometry>
        </mxCell>
        <mxCell id="k9FPYHcv1VQ5JnB0tBHk-14" value="Extends" style="endArrow=block;endSize=16;endFill=0;html=1;rounded=0;exitX=0.5;exitY=0;exitDx=0;exitDy=0;entryX=0.5;entryY=1;entryDx=0;entryDy=0;" parent="WIyWlLk6GJQsqaUBKTNV-1" source="k9FPYHcv1VQ5JnB0tBHk-9" target="k9FPYHcv1VQ5JnB0tBHk-7" edge="1">
          <mxGeometry width="160" relative="1" as="geometry">
            <mxPoint x="100" y="760" as="sourcePoint" />
            <mxPoint x="10" y="670" as="targetPoint" />
          </mxGeometry>
        </mxCell>
        <mxCell id="k9FPYHcv1VQ5JnB0tBHk-15" value="Extends" style="endArrow=block;endSize=16;endFill=0;html=1;rounded=0;exitX=0.5;exitY=0;exitDx=0;exitDy=0;" parent="WIyWlLk6GJQsqaUBKTNV-1" source="k9FPYHcv1VQ5JnB0tBHk-8" edge="1">
          <mxGeometry width="160" relative="1" as="geometry">
            <mxPoint x="10" y="610" as="sourcePoint" />
            <mxPoint x="110" y="550" as="targetPoint" />
          </mxGeometry>
        </mxCell>
        <mxCell id="k9FPYHcv1VQ5JnB0tBHk-16" value="" style="endArrow=open;endFill=1;endSize=12;html=1;rounded=0;entryX=0;entryY=0.5;entryDx=0;entryDy=0;exitX=1;exitY=1;exitDx=0;exitDy=0;" parent="WIyWlLk6GJQsqaUBKTNV-1" source="k9FPYHcv1VQ5JnB0tBHk-9" target="k9FPYHcv1VQ5JnB0tBHk-5" edge="1">
          <mxGeometry width="160" relative="1" as="geometry">
            <mxPoint x="230" y="690" as="sourcePoint" />
            <mxPoint x="390" y="690" as="targetPoint" />
          </mxGeometry>
        </mxCell>
        <mxCell id="k9FPYHcv1VQ5JnB0tBHk-17" value="reserves" style="edgeLabel;html=1;align=center;verticalAlign=middle;resizable=0;points=[];" parent="k9FPYHcv1VQ5JnB0tBHk-16" vertex="1" connectable="0">
          <mxGeometry x="-0.0066" relative="1" as="geometry">
            <mxPoint as="offset" />
          </mxGeometry>
        </mxCell>
        <mxCell id="k9FPYHcv1VQ5JnB0tBHk-18" value="VehicleLog" style="rounded=0;whiteSpace=wrap;html=1;" parent="WIyWlLk6GJQsqaUBKTNV-1" vertex="1">
          <mxGeometry x="200" y="490" width="120" height="60" as="geometry" />
        </mxCell>
        <mxCell id="k9FPYHcv1VQ5JnB0tBHk-19" value="" style="endArrow=diamondThin;endFill=1;endSize=24;html=1;rounded=0;entryX=0;entryY=0;entryDx=0;entryDy=0;exitX=0.5;exitY=1;exitDx=0;exitDy=0;" parent="WIyWlLk6GJQsqaUBKTNV-1" source="k9FPYHcv1VQ5JnB0tBHk-18" target="k9FPYHcv1VQ5JnB0tBHk-5" edge="1">
          <mxGeometry width="160" relative="1" as="geometry">
            <mxPoint x="230" y="690" as="sourcePoint" />
            <mxPoint x="390" y="690" as="targetPoint" />
          </mxGeometry>
        </mxCell>
        <mxCell id="k9FPYHcv1VQ5JnB0tBHk-20" value="Car" style="rounded=0;whiteSpace=wrap;html=1;" parent="WIyWlLk6GJQsqaUBKTNV-1" vertex="1">
          <mxGeometry x="590" y="560" width="120" height="60" as="geometry" />
        </mxCell>
        <mxCell id="k9FPYHcv1VQ5JnB0tBHk-21" value="Van" style="rounded=0;whiteSpace=wrap;html=1;" parent="WIyWlLk6GJQsqaUBKTNV-1" vertex="1">
          <mxGeometry x="590" y="650" width="120" height="60" as="geometry" />
        </mxCell>
        <mxCell id="k9FPYHcv1VQ5JnB0tBHk-22" value="Truck" style="rounded=0;whiteSpace=wrap;html=1;" parent="WIyWlLk6GJQsqaUBKTNV-1" vertex="1">
          <mxGeometry x="590" y="730" width="120" height="60" as="geometry" />
        </mxCell>
        <mxCell id="k9FPYHcv1VQ5JnB0tBHk-23" value="Motorcycle" style="rounded=0;whiteSpace=wrap;html=1;" parent="WIyWlLk6GJQsqaUBKTNV-1" vertex="1">
          <mxGeometry x="590" y="810" width="120" height="60" as="geometry" />
        </mxCell>
        <mxCell id="k9FPYHcv1VQ5JnB0tBHk-24" value="Extends" style="endArrow=block;endSize=16;endFill=0;html=1;rounded=0;entryX=0;entryY=0.5;entryDx=0;entryDy=0;exitX=1;exitY=0.5;exitDx=0;exitDy=0;" parent="WIyWlLk6GJQsqaUBKTNV-1" source="k9FPYHcv1VQ5JnB0tBHk-5" target="k9FPYHcv1VQ5JnB0tBHk-20" edge="1">
          <mxGeometry width="160" relative="1" as="geometry">
            <mxPoint x="490" y="710" as="sourcePoint" />
            <mxPoint x="10" y="670" as="targetPoint" />
          </mxGeometry>
        </mxCell>
        <mxCell id="k9FPYHcv1VQ5JnB0tBHk-25" value="Extends" style="endArrow=block;endSize=16;endFill=0;html=1;rounded=0;entryX=0;entryY=0.5;entryDx=0;entryDy=0;" parent="WIyWlLk6GJQsqaUBKTNV-1" target="k9FPYHcv1VQ5JnB0tBHk-21" edge="1">
          <mxGeometry x="0.0014" width="160" relative="1" as="geometry">
            <mxPoint x="470" y="720" as="sourcePoint" />
            <mxPoint x="600" y="600" as="targetPoint" />
            <mxPoint as="offset" />
          </mxGeometry>
        </mxCell>
        <mxCell id="k9FPYHcv1VQ5JnB0tBHk-26" value="Extends" style="endArrow=block;endSize=16;endFill=0;html=1;rounded=0;entryX=0;entryY=0.5;entryDx=0;entryDy=0;" parent="WIyWlLk6GJQsqaUBKTNV-1" target="k9FPYHcv1VQ5JnB0tBHk-22" edge="1">
          <mxGeometry width="160" relative="1" as="geometry">
            <mxPoint x="470" y="720" as="sourcePoint" />
            <mxPoint x="600" y="690" as="targetPoint" />
          </mxGeometry>
        </mxCell>
        <mxCell id="k9FPYHcv1VQ5JnB0tBHk-27" value="Extends" style="endArrow=block;endSize=16;endFill=0;html=1;rounded=0;entryX=0;entryY=0.5;entryDx=0;entryDy=0;" parent="WIyWlLk6GJQsqaUBKTNV-1" target="k9FPYHcv1VQ5JnB0tBHk-23" edge="1">
          <mxGeometry width="160" relative="1" as="geometry">
            <mxPoint x="470" y="720" as="sourcePoint" />
            <mxPoint x="600" y="770" as="targetPoint" />
          </mxGeometry>
        </mxCell>
        <mxCell id="k9FPYHcv1VQ5JnB0tBHk-28" value="&amp;lt;&amp;lt;interface&amp;gt;&amp;gt;&lt;br&gt;Search" style="rounded=0;whiteSpace=wrap;html=1;" parent="WIyWlLk6GJQsqaUBKTNV-1" vertex="1">
          <mxGeometry x="60" y="830" width="120" height="60" as="geometry" />
        </mxCell>
        <mxCell id="k9FPYHcv1VQ5JnB0tBHk-29" value="VehicleCatalog" style="rounded=0;whiteSpace=wrap;html=1;" parent="WIyWlLk6GJQsqaUBKTNV-1" vertex="1">
          <mxGeometry x="60" y="930" width="120" height="60" as="geometry" />
        </mxCell>
        <mxCell id="k9FPYHcv1VQ5JnB0tBHk-30" value="" style="endArrow=block;dashed=1;endFill=0;endSize=12;html=1;rounded=0;entryX=0.5;entryY=1;entryDx=0;entryDy=0;" parent="WIyWlLk6GJQsqaUBKTNV-1" source="k9FPYHcv1VQ5JnB0tBHk-29" target="k9FPYHcv1VQ5JnB0tBHk-28" edge="1">
          <mxGeometry width="160" relative="1" as="geometry">
            <mxPoint x="260" y="730" as="sourcePoint" />
            <mxPoint x="420" y="730" as="targetPoint" />
          </mxGeometry>
        </mxCell>
        <mxCell id="k9FPYHcv1VQ5JnB0tBHk-31" value="implements" style="text;html=1;align=center;verticalAlign=middle;resizable=0;points=[];autosize=1;strokeColor=none;fillColor=none;" parent="WIyWlLk6GJQsqaUBKTNV-1" vertex="1">
          <mxGeometry x="48" y="898" width="80" height="30" as="geometry" />
        </mxCell>
        <mxCell id="k9FPYHcv1VQ5JnB0tBHk-32" value="" style="endArrow=diamondThin;endFill=0;endSize=24;html=1;rounded=0;entryX=1;entryY=0.5;entryDx=0;entryDy=0;exitX=0;exitY=0.75;exitDx=0;exitDy=0;" parent="WIyWlLk6GJQsqaUBKTNV-1" source="k9FPYHcv1VQ5JnB0tBHk-5" target="k9FPYHcv1VQ5JnB0tBHk-29" edge="1">
          <mxGeometry width="160" relative="1" as="geometry">
            <mxPoint x="260" y="730" as="sourcePoint" />
            <mxPoint x="420" y="730" as="targetPoint" />
          </mxGeometry>
        </mxCell>
        <mxCell id="k9FPYHcv1VQ5JnB0tBHk-33" value="VehicleReservation" style="rounded=0;whiteSpace=wrap;html=1;" parent="WIyWlLk6GJQsqaUBKTNV-1" vertex="1">
          <mxGeometry x="350" y="1080" width="120" height="60" as="geometry" />
        </mxCell>
        <mxCell id="k9FPYHcv1VQ5JnB0tBHk-34" value="" style="endArrow=open;endFill=1;endSize=12;html=1;rounded=0;entryX=0.5;entryY=0;entryDx=0;entryDy=0;exitX=0.5;exitY=1;exitDx=0;exitDy=0;" parent="WIyWlLk6GJQsqaUBKTNV-1" source="k9FPYHcv1VQ5JnB0tBHk-5" target="k9FPYHcv1VQ5JnB0tBHk-33" edge="1">
          <mxGeometry width="160" relative="1" as="geometry">
            <mxPoint x="260" y="820" as="sourcePoint" />
            <mxPoint x="420" y="820" as="targetPoint" />
          </mxGeometry>
        </mxCell>
        <mxCell id="k9FPYHcv1VQ5JnB0tBHk-35" value="&amp;lt;&amp;lt;abstract&amp;gt;&amp;gt;&lt;br&gt;Payment" style="rounded=0;whiteSpace=wrap;html=1;" parent="WIyWlLk6GJQsqaUBKTNV-1" vertex="1">
          <mxGeometry y="1080" width="120" height="60" as="geometry" />
        </mxCell>
        <mxCell id="k9FPYHcv1VQ5JnB0tBHk-36" value="CreditCard" style="rounded=0;whiteSpace=wrap;html=1;" parent="WIyWlLk6GJQsqaUBKTNV-1" vertex="1">
          <mxGeometry x="-110" y="1189" width="120" height="60" as="geometry" />
        </mxCell>
        <mxCell id="k9FPYHcv1VQ5JnB0tBHk-37" value="Cash" style="rounded=0;whiteSpace=wrap;html=1;" parent="WIyWlLk6GJQsqaUBKTNV-1" vertex="1">
          <mxGeometry x="100" y="1189" width="120" height="60" as="geometry" />
        </mxCell>
        <mxCell id="k9FPYHcv1VQ5JnB0tBHk-39" value="" style="endArrow=block;startArrow=block;endFill=1;startFill=1;html=1;rounded=0;entryX=0;entryY=0.5;entryDx=0;entryDy=0;exitX=1;exitY=0.5;exitDx=0;exitDy=0;" parent="WIyWlLk6GJQsqaUBKTNV-1" source="k9FPYHcv1VQ5JnB0tBHk-35" target="k9FPYHcv1VQ5JnB0tBHk-33" edge="1">
          <mxGeometry width="160" relative="1" as="geometry">
            <mxPoint x="70" y="1130" as="sourcePoint" />
            <mxPoint x="-40" y="1179" as="targetPoint" />
          </mxGeometry>
        </mxCell>
        <mxCell id="k9FPYHcv1VQ5JnB0tBHk-40" value="Extends" style="endArrow=block;endSize=16;endFill=0;html=1;rounded=0;exitX=0.5;exitY=0;exitDx=0;exitDy=0;entryX=0.5;entryY=1;entryDx=0;entryDy=0;" parent="WIyWlLk6GJQsqaUBKTNV-1" source="k9FPYHcv1VQ5JnB0tBHk-36" target="k9FPYHcv1VQ5JnB0tBHk-35" edge="1">
          <mxGeometry width="160" relative="1" as="geometry">
            <mxPoint x="100" y="775" as="sourcePoint" />
            <mxPoint x="10" y="690" as="targetPoint" />
          </mxGeometry>
        </mxCell>
        <mxCell id="k9FPYHcv1VQ5JnB0tBHk-41" value="Extends" style="endArrow=block;endSize=16;endFill=0;html=1;rounded=0;exitX=0.5;exitY=0;exitDx=0;exitDy=0;entryX=0.5;entryY=1;entryDx=0;entryDy=0;" parent="WIyWlLk6GJQsqaUBKTNV-1" source="k9FPYHcv1VQ5JnB0tBHk-37" target="k9FPYHcv1VQ5JnB0tBHk-35" edge="1">
          <mxGeometry width="160" relative="1" as="geometry">
            <mxPoint x="-40" y="1199" as="sourcePoint" />
            <mxPoint x="70" y="1150" as="targetPoint" />
          </mxGeometry>
        </mxCell>
        <mxCell id="k9FPYHcv1VQ5JnB0tBHk-42" value="Fine" style="rounded=0;whiteSpace=wrap;html=1;" parent="WIyWlLk6GJQsqaUBKTNV-1" vertex="1">
          <mxGeometry x="-160" y="1080" width="120" height="60" as="geometry" />
        </mxCell>
        <mxCell id="k9FPYHcv1VQ5JnB0tBHk-43" value="" style="endArrow=open;endFill=1;endSize=12;html=1;rounded=0;entryX=0;entryY=0.5;entryDx=0;entryDy=0;exitX=1;exitY=0.5;exitDx=0;exitDy=0;" parent="WIyWlLk6GJQsqaUBKTNV-1" source="k9FPYHcv1VQ5JnB0tBHk-42" target="k9FPYHcv1VQ5JnB0tBHk-35" edge="1">
          <mxGeometry width="160" relative="1" as="geometry">
            <mxPoint x="420" y="780" as="sourcePoint" />
            <mxPoint x="420" y="1110" as="targetPoint" />
          </mxGeometry>
        </mxCell>
        <mxCell id="k9FPYHcv1VQ5JnB0tBHk-44" value="&amp;lt;&amp;lt;abstract&amp;gt;&amp;gt;&lt;br&gt;Notification" style="rounded=0;whiteSpace=wrap;html=1;" parent="WIyWlLk6GJQsqaUBKTNV-1" vertex="1">
          <mxGeometry x="680" y="1080" width="120" height="60" as="geometry" />
        </mxCell>
        <mxCell id="k9FPYHcv1VQ5JnB0tBHk-45" value="SMSNotification" style="rounded=0;whiteSpace=wrap;html=1;" parent="WIyWlLk6GJQsqaUBKTNV-1" vertex="1">
          <mxGeometry x="570" y="1189" width="120" height="60" as="geometry" />
        </mxCell>
        <mxCell id="k9FPYHcv1VQ5JnB0tBHk-46" value="EmailNotification" style="rounded=0;whiteSpace=wrap;html=1;" parent="WIyWlLk6GJQsqaUBKTNV-1" vertex="1">
          <mxGeometry x="780" y="1189" width="120" height="60" as="geometry" />
        </mxCell>
        <mxCell id="k9FPYHcv1VQ5JnB0tBHk-47" value="Extends" style="endArrow=block;endSize=16;endFill=0;html=1;rounded=0;exitX=0.5;exitY=0;exitDx=0;exitDy=0;entryX=0.5;entryY=1;entryDx=0;entryDy=0;" parent="WIyWlLk6GJQsqaUBKTNV-1" source="k9FPYHcv1VQ5JnB0tBHk-45" target="k9FPYHcv1VQ5JnB0tBHk-44" edge="1">
          <mxGeometry width="160" relative="1" as="geometry">
            <mxPoint x="780" y="775" as="sourcePoint" />
            <mxPoint x="690" y="690" as="targetPoint" />
          </mxGeometry>
        </mxCell>
        <mxCell id="k9FPYHcv1VQ5JnB0tBHk-48" value="Extends" style="endArrow=block;endSize=16;endFill=0;html=1;rounded=0;exitX=0.5;exitY=0;exitDx=0;exitDy=0;entryX=0.5;entryY=1;entryDx=0;entryDy=0;" parent="WIyWlLk6GJQsqaUBKTNV-1" source="k9FPYHcv1VQ5JnB0tBHk-46" target="k9FPYHcv1VQ5JnB0tBHk-44" edge="1">
          <mxGeometry width="160" relative="1" as="geometry">
            <mxPoint x="640" y="1199" as="sourcePoint" />
            <mxPoint x="750" y="1150" as="targetPoint" />
          </mxGeometry>
        </mxCell>
        <mxCell id="k9FPYHcv1VQ5JnB0tBHk-51" value="" style="endArrow=block;startArrow=block;endFill=1;startFill=1;html=1;rounded=0;entryX=0;entryY=0.5;entryDx=0;entryDy=0;exitX=1;exitY=0.5;exitDx=0;exitDy=0;" parent="WIyWlLk6GJQsqaUBKTNV-1" source="k9FPYHcv1VQ5JnB0tBHk-33" target="k9FPYHcv1VQ5JnB0tBHk-44" edge="1">
          <mxGeometry width="160" relative="1" as="geometry">
            <mxPoint x="130" y="1100" as="sourcePoint" />
            <mxPoint x="360" y="1120" as="targetPoint" />
          </mxGeometry>
        </mxCell>
        <mxCell id="k9FPYHcv1VQ5JnB0tBHk-52" value="&amp;lt;&amp;lt;abstract&amp;gt;&amp;gt;&lt;br&gt;Service" style="rounded=0;whiteSpace=wrap;html=1;" parent="WIyWlLk6GJQsqaUBKTNV-1" vertex="1">
          <mxGeometry x="142" y="1300" width="120" height="60" as="geometry" />
        </mxCell>
        <mxCell id="k9FPYHcv1VQ5JnB0tBHk-53" value="" style="endArrow=diamondThin;endFill=0;endSize=24;html=1;rounded=0;entryX=0.5;entryY=1;entryDx=0;entryDy=0;exitX=0.5;exitY=0;exitDx=0;exitDy=0;" parent="WIyWlLk6GJQsqaUBKTNV-1" source="k9FPYHcv1VQ5JnB0tBHk-52" target="k9FPYHcv1VQ5JnB0tBHk-33" edge="1">
          <mxGeometry width="160" relative="1" as="geometry">
            <mxPoint x="300" y="1040" as="sourcePoint" />
            <mxPoint x="190" y="970" as="targetPoint" />
          </mxGeometry>
        </mxCell>
        <mxCell id="k9FPYHcv1VQ5JnB0tBHk-55" value="" style="endArrow=diamondThin;endFill=0;endSize=24;html=1;rounded=0;exitX=0.5;exitY=0;exitDx=0;exitDy=0;" parent="WIyWlLk6GJQsqaUBKTNV-1" source="k9FPYHcv1VQ5JnB0tBHk-65" edge="1">
          <mxGeometry width="160" relative="1" as="geometry">
            <mxPoint x="510" y="1250" as="sourcePoint" />
            <mxPoint x="410" y="1140" as="targetPoint" />
          </mxGeometry>
        </mxCell>
        <mxCell id="k9FPYHcv1VQ5JnB0tBHk-56" value="RoadSideAssistance" style="rounded=0;whiteSpace=wrap;html=1;" parent="WIyWlLk6GJQsqaUBKTNV-1" vertex="1">
          <mxGeometry x="20" y="1420" width="120" height="60" as="geometry" />
        </mxCell>
        <mxCell id="k9FPYHcv1VQ5JnB0tBHk-57" value="DriverService" style="rounded=0;whiteSpace=wrap;html=1;" parent="WIyWlLk6GJQsqaUBKTNV-1" vertex="1">
          <mxGeometry x="142" y="1420" width="120" height="60" as="geometry" />
        </mxCell>
        <mxCell id="k9FPYHcv1VQ5JnB0tBHk-58" value="WiFi" style="rounded=0;whiteSpace=wrap;html=1;" parent="WIyWlLk6GJQsqaUBKTNV-1" vertex="1">
          <mxGeometry x="264" y="1420" width="120" height="60" as="geometry" />
        </mxCell>
        <mxCell id="k9FPYHcv1VQ5JnB0tBHk-59" value="Extends" style="endArrow=block;endSize=16;endFill=0;html=1;rounded=0;exitX=0.5;exitY=0;exitDx=0;exitDy=0;entryX=0.5;entryY=1;entryDx=0;entryDy=0;" parent="WIyWlLk6GJQsqaUBKTNV-1" source="k9FPYHcv1VQ5JnB0tBHk-56" target="k9FPYHcv1VQ5JnB0tBHk-52" edge="1">
          <mxGeometry width="160" relative="1" as="geometry">
            <mxPoint x="437" y="1219" as="sourcePoint" />
            <mxPoint x="547" y="1170" as="targetPoint" />
          </mxGeometry>
        </mxCell>
        <mxCell id="k9FPYHcv1VQ5JnB0tBHk-60" value="Extends" style="endArrow=block;endSize=16;endFill=0;html=1;rounded=0;" parent="WIyWlLk6GJQsqaUBKTNV-1" source="k9FPYHcv1VQ5JnB0tBHk-57" edge="1">
          <mxGeometry width="160" relative="1" as="geometry">
            <mxPoint x="92" y="1430" as="sourcePoint" />
            <mxPoint x="202" y="1360" as="targetPoint" />
          </mxGeometry>
        </mxCell>
        <mxCell id="k9FPYHcv1VQ5JnB0tBHk-61" value="Extends" style="endArrow=block;endSize=16;endFill=0;html=1;rounded=0;entryX=0.5;entryY=1;entryDx=0;entryDy=0;exitX=0.5;exitY=0;exitDx=0;exitDy=0;" parent="WIyWlLk6GJQsqaUBKTNV-1" source="k9FPYHcv1VQ5JnB0tBHk-58" target="k9FPYHcv1VQ5JnB0tBHk-52" edge="1">
          <mxGeometry width="160" relative="1" as="geometry">
            <mxPoint x="219" y="1430" as="sourcePoint" />
            <mxPoint x="212" y="1370" as="targetPoint" />
          </mxGeometry>
        </mxCell>
        <mxCell id="k9FPYHcv1VQ5JnB0tBHk-65" value="&amp;lt;&amp;lt;abstract&amp;gt;&amp;gt;&lt;br&gt;Equipment" style="rounded=0;whiteSpace=wrap;html=1;" parent="WIyWlLk6GJQsqaUBKTNV-1" vertex="1">
          <mxGeometry x="512" y="1300" width="120" height="60" as="geometry" />
        </mxCell>
        <mxCell id="k9FPYHcv1VQ5JnB0tBHk-66" value="CarSeat" style="rounded=0;whiteSpace=wrap;html=1;" parent="WIyWlLk6GJQsqaUBKTNV-1" vertex="1">
          <mxGeometry x="390" y="1420" width="120" height="60" as="geometry" />
        </mxCell>
        <mxCell id="k9FPYHcv1VQ5JnB0tBHk-67" value="SkiRack" style="rounded=0;whiteSpace=wrap;html=1;" parent="WIyWlLk6GJQsqaUBKTNV-1" vertex="1">
          <mxGeometry x="512" y="1420" width="120" height="60" as="geometry" />
        </mxCell>
        <mxCell id="k9FPYHcv1VQ5JnB0tBHk-68" value="Navigation" style="rounded=0;whiteSpace=wrap;html=1;" parent="WIyWlLk6GJQsqaUBKTNV-1" vertex="1">
          <mxGeometry x="634" y="1420" width="120" height="60" as="geometry" />
        </mxCell>
        <mxCell id="k9FPYHcv1VQ5JnB0tBHk-69" value="Extends" style="endArrow=block;endSize=16;endFill=0;html=1;rounded=0;exitX=0.5;exitY=0;exitDx=0;exitDy=0;entryX=0.5;entryY=1;entryDx=0;entryDy=0;" parent="WIyWlLk6GJQsqaUBKTNV-1" source="k9FPYHcv1VQ5JnB0tBHk-66" target="k9FPYHcv1VQ5JnB0tBHk-65" edge="1">
          <mxGeometry width="160" relative="1" as="geometry">
            <mxPoint x="807" y="1219" as="sourcePoint" />
            <mxPoint x="917" y="1170" as="targetPoint" />
          </mxGeometry>
        </mxCell>
        <mxCell id="k9FPYHcv1VQ5JnB0tBHk-70" value="Extends" style="endArrow=block;endSize=16;endFill=0;html=1;rounded=0;" parent="WIyWlLk6GJQsqaUBKTNV-1" source="k9FPYHcv1VQ5JnB0tBHk-67" edge="1">
          <mxGeometry width="160" relative="1" as="geometry">
            <mxPoint x="462" y="1430" as="sourcePoint" />
            <mxPoint x="572" y="1360" as="targetPoint" />
          </mxGeometry>
        </mxCell>
        <mxCell id="k9FPYHcv1VQ5JnB0tBHk-71" value="Extends" style="endArrow=block;endSize=16;endFill=0;html=1;rounded=0;entryX=0.5;entryY=1;entryDx=0;entryDy=0;exitX=0.5;exitY=0;exitDx=0;exitDy=0;" parent="WIyWlLk6GJQsqaUBKTNV-1" source="k9FPYHcv1VQ5JnB0tBHk-68" target="k9FPYHcv1VQ5JnB0tBHk-65" edge="1">
          <mxGeometry width="160" relative="1" as="geometry">
            <mxPoint x="589" y="1430" as="sourcePoint" />
            <mxPoint x="582" y="1370" as="targetPoint" />
          </mxGeometry>
        </mxCell>
      </root>
    </mxGraphModel>
  </diagram>
</mxfile>
